<svg version="1.0" xmlns="http://www.w3.org/2000/svg">
    <g id="g" transform="translate(0,128) scale(0.1,-0.1)" fill="currentColor">
        <path d="M395 1271 c-39 -17 -67 -58 -72 -105 l-6 -46 -118 0 c-130 0 -163 -9
        -185 -51 -17 -34 -19 -140 -2 -157 17 -17 999 -17 1016 0 15 15 16 119 0 153
        -20 45 -55 55 -186 55 l-119 0 -6 46 c-3 34 -13 55 -36 78 -31 31 -32 31 -149
        33 -64 2 -126 -1 -137 -6z m233 -83 c7 -7 12 -25 12 -40 l0 -28 -120 0 -120 0
        0 28 c0 15 5 33 12 40 16 16 200 16 216 0z"/>
        <path d="M67 813c-2-5 4-168 13-363 19-387 22-405 80-435 43-22 677-22 720 0 58 30 61 48 80 435 9 195 15 358 13 363-5 9-901 9-906 0zm282-67c12-4 11-95 15-291 1-252-5-279-20-289-13-8-23-8-35 0-16 10-27 36-29 288-4 291 0 305 38 305 10 0 23-6 29-14zm200 0c8-9 16-91 18-295 4-255-5-279-20-289-13-8-23-8-35 0-16 10-28 35-30 293-6 295 0 305 38 305 10 0 23-6 29-14zm200 0c8-9 12-83 13-292 7-253-5-279-20-289-13-8-23-8-35 0-16 10-27 37-30 289-6 291 0 305 38 305 10 0 23-6 34-14z"/>
    </g>
</svg>