<?xml version="1.0" standalone="no"?>
<!DOCTYPE svg PUBLIC "-//W3C//DTD SVG 20010904//EN"
 "http://www.w3.org/TR/2001/REC-SVG-20010904/DTD/svg10.dtd">
<svg version="1.0" xmlns="http://www.w3.org/2000/svg"
 width="512.000000pt" height="512.000000pt" viewBox="0 0 512.000000 512.000000"
 preserveAspectRatio="xMidYMid meet">
<metadata>
Created by potrace 1.14, written by Peter Selinger 2001-2017
</metadata>
<g transform="translate(0.000000,512.000000) scale(0.100000,-0.100000)"
fill="#000000" stroke="none">
<path d="M1073 5109 c-458 -54 -850 -368 -1002 -801 -70 -201 -65 -75 -68
-1705 -4 -1604 -5 -1570 52 -1753 118 -375 419 -676 795 -794 179 -57 152 -56
1710 -56 1558 0 1531 -1 1710 56 376 118 677 419 795 794 57 183 56 149 52
1753 -3 1365 -4 1477 -21 1545 -117 491 -457 832 -941 945 -89 21 -104 21
-1550 23 -803 1 -1492 -2 -1532 -7z m1832 -733 c722 -153 1282 -700 1439
-1407 101 -453 31 -923 -196 -1321 -344 -603 -989 -962 -1678 -935 -673 27
-1271 410 -1574 1007 -196 388 -251 796 -165 1224 144 716 741 1300 1464 1435
157 29 159 29 385 26 174 -3 223 -7 325 -29z"/>
<path d="M2417 4129 c-269 -18 -535 -112 -772 -272 -123 -84 -323 -285 -404
-407 -121 -181 -197 -359 -243 -567 -19 -85 -22 -128 -22 -323 0 -195 3 -238
22 -323 46 -208 122 -386 243 -567 81 -122 281 -323 404 -407 306 -206 642
-297 1014 -271 694 46 1268 546 1423 1239 20 92 23 130 23 324 0 245 -14 359
-44 351 -9 -3 -54 -13 -99 -22 l-84 -18 6 -35 c44 -264 30 -470 -49 -708 -67
-200 -175 -374 -330 -528 -198 -198 -432 -323 -710 -381 -124 -25 -385 -26
-505 -1 -279 59 -514 183 -703 371 -243 240 -375 517 -409 858 -26 260 39 559
172 793 131 227 348 433 583 551 85 43 244 97 357 121 120 25 381 24 505 -1
278 -58 512 -183 710 -381 96 -95 208 -246 251 -337 10 -21 21 -38 26 -38 18
0 178 80 178 89 0 6 -16 39 -35 73 -304 553 -871 860 -1508 817z"/>
<path d="M2490 3660 l0 -160 70 0 70 0 0 160 0 160 -70 0 -70 0 0 -160z"/>
<path d="M1660 3465 l-45 -45 118 -118 117 -117 47 48 48 47 -115 115 c-63 63
-117 115 -120 115 -3 0 -26 -20 -50 -45z"/>
<path d="M3280 3375 l-115 -115 48 -47 47 -48 117 117 118 118 -45 45 c-24 25
-47 45 -50 45 -3 0 -57 -52 -120 -115z"/>
<path d="M2490 3116 l0 -273 -44 -17 c-54 -21 -117 -80 -148 -138 -30 -58 -32
-183 -4 -246 l20 -43 -127 -127 -126 -127 40 -42 c22 -24 43 -43 47 -43 4 0
63 56 131 124 l124 125 31 -17 c45 -24 208 -24 253 1 55 30 103 78 131 131 23
44 27 63 27 136 0 69 -4 93 -23 128 -31 59 -94 117 -148 138 l-44 17 0 273 0
274 -70 0 -70 0 0 -274z"/>
<path d="M1290 2560 l0 -70 165 0 165 0 0 70 0 70 -165 0 -165 0 0 -70z"/>
<path d="M3470 2560 l0 -70 165 0 165 0 0 70 0 70 -165 0 -165 0 0 -70z"/>
<path d="M3227 1902 l-47 -47 118 -118 118 -117 47 48 47 47 -118 118 -118
117 -47 -48z"/>
<path d="M1710 1805 l-115 -115 48 -47 47 -48 117 117 118 118 -45 45 c-24 25
-47 45 -50 45 -3 0 -57 -52 -120 -115z"/>
<path d="M2490 1450 l0 -160 70 0 70 0 0 160 0 160 -70 0 -70 0 0 -160z"/>
</g>
</svg>
