<?xml version="1.0" encoding="UTF-8" standalone="no" ?>
<!DOCTYPE svg PUBLIC "-//W3C//DTD SVG 1.1//EN" "http://www.w3.org/Graphics/SVG/1.1/DTD/svg11.dtd">
<svg xmlns="http://www.w3.org/2000/svg" xmlns:xlink="http://www.w3.org/1999/xlink" version="1.1" width="498" height="466" viewBox="0 0 498 466" xml:space="preserve">
<desc>Created with Fabric.js 4.6.0</desc>
<defs>
</defs>
<g transform="matrix(0.65 0 0 0.65 249 252.5)" id="0yGfpTigi8pn9526O0Cn0"  >
<path style="stroke: none; stroke-width: 1; stroke-dasharray: none; stroke-linecap: butt; stroke-dashoffset: 0; stroke-linejoin: miter; stroke-miterlimit: 4; fill: rgb(0,0,0); fill-rule: nonzero; opacity: 1; visibility: hidden;" vector-effect="non-scaling-stroke"  transform=" translate(-384, -320)" d="M 640 0 L 256 384 L 128 256 L 0 384 L 256 640 L 768 128 L 640 0 Z" stroke-linecap="round" />
</g>
<g transform="matrix(0.5 -0.5 0.54 0.54 86.12 275.69)" id="fW-NJgA85ye6TeDyXDmW_"  >
<path style="stroke: rgb(254,233,203); stroke-width: 0; stroke-dasharray: none; stroke-linecap: butt; stroke-dashoffset: 0; stroke-linejoin: miter; stroke-miterlimit: 4; fill: rgb(0,0,0); fill-rule: nonzero; opacity: 1;" vector-effect="non-scaling-stroke"  transform=" translate(0, 0)" d="M -82.5 -82.5 L 82.5 -82.5 L 82.5 82.5 L -82.5 82.5 z" stroke-linecap="round" />
</g>
<g transform="matrix(0.81 -0.81 0.5 0.5 192.01 329.88)" id="LQcCof9oi8ZtJCJ2qiJMf"  >
<path style="stroke: rgb(254,233,203); stroke-width: 0; stroke-dasharray: none; stroke-linecap: butt; stroke-dashoffset: 0; stroke-linejoin: miter; stroke-miterlimit: 4; fill: rgb(0,0,0); fill-rule: nonzero; opacity: 1;" vector-effect="non-scaling-stroke"  transform=" translate(0, 0)" d="M -82.5 -82.5 L 82.5 -82.5 L 82.5 82.5 L -82.5 82.5 z" stroke-linecap="round" />
</g>
<g transform="matrix(0.8 -0.8 0.5 0.5 390.62 131.39)" id="rNxTLwZpUdwOPFoRnHe3B"  >
<path style="stroke: rgb(254,233,203); stroke-width: 0; stroke-dasharray: none; stroke-linecap: butt; stroke-dashoffset: 0; stroke-linejoin: miter; stroke-miterlimit: 4; fill: rgb(0,0,0); fill-rule: nonzero; opacity: 1;" vector-effect="non-scaling-stroke"  transform=" translate(0, 0)" d="M -82.5 -82.5 L 82.5 -82.5 L 82.5 82.5 L -82.5 82.5 z" stroke-linecap="round" />
</g>
<g transform="matrix(0.13 -0.13 1.81 1.81 256.51 233.19)" id="a9cYok7HmFTvDoHN42Owm"  >
<path style="stroke: rgb(40,74,206); stroke-width: 0; stroke-dasharray: none; stroke-linecap: butt; stroke-dashoffset: 0; stroke-linejoin: miter; stroke-miterlimit: 4; fill: rgb(0,0,0); fill-rule: nonzero; opacity: 1;" vector-effect="non-scaling-stroke"  transform=" translate(0, 0)" d="M -120 -120 L 120 -120 L 120 120 L -120 120 z" stroke-linecap="round" />
</g>
</svg>